<svg xmlns="http://www.w3.org/2000/svg" viewBox="0 0 941.23 681.08"><defs><style>.cls-1{fill:#ff8b69;stroke:#ff8b69}.cls-1,.cls-2,.cls-3,.cls-4,.cls-5,.cls-7{stroke-linecap:round;stroke-linejoin:round;stroke-width:2px}.cls-2{fill:#3c4043}.cls-2,.cls-4,.cls-5{stroke:#3c4043}.cls-3{fill:#4285f4;stroke:#4285f4}.cls-11,.cls-4{fill:#fff}.cls-12,.cls-5{fill:none}.cls-6{fill:#d2e3fc}.cls-7{fill:#cc9369;stroke:#cc9369}.cls-12{stroke-miterlimit:10;stroke:#fc4f4f}</style></defs><g id="Layer_3" data-name="Layer 3"><path class="cls-1" d="M611.39 97s8.61-11.22 13.37-11.22-2 11.23-2 11.23zM626.83 97s5.45-5.94 10.24-5.94 2.06 5.94 2.06 5.94zM596.19 97s5.45-5.94 10.24-5.94 2.06 5.94 2.06 5.94zM420.17 219.25c-.67-.37-8.75-22.91-8.75-22.91s41 17.85 32.37-23.1c-5.94-26.42-14.2-54.49-37.65-54.49s-36.66 11.39-36.66 31.54 19.34 26.17 16.07 39a41.77 41.77 0 01-14.69 22.46z" transform="translate(-176.27 -71.58)"/><path class="cls-2" d="M380.29 201.32c-.16.36 15.28-12.72 15.28-23.46s-9.25-9.41-9.25-20.31c0-11.89 17.51-13 20.91 1.16 2.14 9.25 8.16 7.26 8.16-2.81v-16.18s39.8-6.28 39.8-25.27-16.85-23.28-28.9-23.28-38.15 9.74-41 27.58c0 0-27.08-14.21-36 8.42s11.4 27.08 11.4 27.08-14.69 8.75-8.55 20.64 34.86 11.9 28.15 26.43z" transform="translate(-176.27 -71.58)"/><path class="cls-3" d="M384.67 209.15c54.83 0 104.35 79 104.35 79l71.69-91.84 48.55 28.75s-80.59 142-109 142-62.75-36-62.75-36L449.74 419 310 442.08l-19.49 17.84L246 365.74c-13.87-36.28 2-59.89 14.53-72.44s87.47-84.15 124.14-84.15z" transform="translate(-176.27 -71.58)"/><path class="cls-2" d="M449.74 419c-1.61-11.57-96.88 1.76-138.72 16.73v16.07s140.33-21.27 138.72-32.8z" transform="translate(-176.27 -71.58)"/><path class="cls-4" d="M372.74 24.57h114.27v61.1H372.74z"/><path class="cls-2" d="M560.71 196.34c-7.9 10.12 43 36.38 48.55 28.75 7.37-10.23-38.2-39.56-48.55-28.75z" transform="translate(-176.27 -71.58)"/><path class="cls-1" d="M590.68 157.25s.53-25.71.53-33.09c0-7.77-4.58-6.57-6.08-1.68-8.08 21.74-9.06 46.2-24.42 73.86-5 8.61 16.95 20.4 31.46 26.82 0 0 20.79-50.52 26.73-65z" transform="translate(-176.27 -71.58)"/><path class="cls-4" d="M469.43 609.65s-42.53-194-43.52-195.15c0 0-65.11 3.8-114.89 21.2l-27.74 288.58" transform="translate(-176.27 -71.58)"/><path class="cls-5" d="M591.38 158.11a26.32 26.32 0 015.25 27.27" transform="translate(-176.27 -71.58)"/><path class="cls-6" d="M367.74 185.5h246.48v217.32H367.74z"/><path class="cls-6" d="M367.74 185.5h246.48v36.22H367.74z"/><path class="cls-3" d="M652.77 248.47l5.29 66.55 70.84-.83-5.61-48.71-70.52-17.01z"/><path class="cls-7" d="M717.74 305.68c.13.14 12.12 32 12.12 32 2 3.73 6.19.59 5.25-4.61s-8.62-32.7-8.62-32.7z" transform="translate(-176.27 -71.58)"/><path class="cls-7" d="M710 308.49c.14.14 14 35.52 14 35.52 2 3.73 6.2.59 5.26-4.61s-9.54-35.21-9.54-35.21z" transform="translate(-176.27 -71.58)"/><path class="cls-2" d="M829 320.38c-11.4-2.64-4.95 66.67 5.28 66.55s8.3-62.09-5.28-66.55z" transform="translate(-176.27 -71.58)"/><path class="cls-4" d="M750.22 680.08l-43.87-349.21 94.66.44 47.56 348.77"/><circle class="cls-2" cx="382.76" cy="203.61" r="4.42"/><circle class="cls-4" cx="396.89" cy="203.61" r="4.42"/><circle class="cls-4" cx="411.02" cy="203.61" r="4.42"/><rect class="cls-2" x="411.02" y="297.7" width="151.95" height="22.09" rx="11.04"/><circle cx="22.2" cy="414.69" r="21.2" stroke-miterlimit="10" fill="#ea4335" stroke="#ea4335" stroke-width="2"/><path fill="#fbbc04" stroke="#fbbc04" stroke-width=".59" stroke-linecap="round" stroke-linejoin="round" d="M797.82 149.95h143.12v100.71H797.82z"/><path class="cls-4" d="M515.98 319.78l32.5-55.96-52.92-30.55-50.14 86.51h70.56z"/><path d="M542.81 585.75a78.39 78.39 0 000 156.77z" transform="translate(-176.27 -71.58)" fill="#ceead6"/><path class="cls-2" d="M873 430.78s-24.37-28.33 8.77-28.33l14.09 28.33z" transform="translate(-176.27 -71.58)"/><path class="cls-11" d="M920 213.57c-1.07-.43-2-.82-2.71-1.19-8.59-4.46-29.39-13.21-27.41-43.27s-23.45-35-42.11-25.43-10.3 32.09-19.49 47.29h6.61c8.09 36.22 31.43 12.44 31.43 12.44 13.21 21.13 4.4 37.43-9.25 59-.92 1.64-1.79 3.23-2.63 4.78C870 262 894.09 248.69 920 213.57z" transform="translate(-176.27 -71.58)"/><path class="cls-11" d="M984.67 296.76C963.49 229 931.78 218.32 920 213.57c-25.91 35.12-50 48.44-65.56 53.62-28.66 53.49-6.58 64.52 9.68 145.53-1.38-5.6 5.88-10.27 18.49-10.27h95.56l1.93-26.75 32.31-13.21z" transform="translate(-176.27 -71.58)"/><path class="cls-12" d="M920 213.57c-1.07-.43-2-.82-2.71-1.19-8.59-4.46-29.39-13.21-27.41-43.27s-23.45-35-42.11-25.43-10.3 32.09-19.49 47.29h6.61c8.09 36.22 31.43 12.44 31.43 12.44 13.21 21.13 4.4 37.43-9.25 59-.92 1.64-1.79 3.23-2.63 4.78C870 262 894.09 248.69 920 213.57z" transform="translate(-176.27 -71.58)"/><path class="cls-12" d="M984.67 296.76C963.49 229 931.78 218.32 920 213.57c-25.91 35.12-50 48.44-65.56 53.62-28.66 53.49-6.58 64.52 9.68 145.53-1.38-5.6 5.88-10.27 18.49-10.27h95.56l1.93-26.75 32.31-13.21z" transform="translate(-176.27 -71.58)"/><path class="cls-5" d="M920 213.57c-1.07-.43-2-.82-2.71-1.19-8.59-4.46-29.39-13.21-27.41-43.27s-23.45-35-42.11-25.43-10.3 32.09-19.49 47.29h6.61c8.09 36.22 31.43 12.44 31.43 12.44 13.21 21.13 4.4 37.43-9.25 59-.92 1.64-1.79 3.23-2.63 4.78C870 262 894.09 248.69 920 213.57z" transform="translate(-176.27 -71.58)"/><path class="cls-5" d="M984.67 296.76C963.49 229 931.78 218.32 920 213.57c-25.91 35.12-50 48.44-65.56 53.62-28.66 53.49-6.58 64.52 9.68 145.53-1.38-5.6 5.88-10.27 18.49-10.27h95.56l1.93-26.75 32.31-13.21z" transform="translate(-176.27 -71.58)"/><path class="cls-4" d="M774.27 749.9l107.45-347.45h95.56c16.72 132.11-80.17 289.32-98.67 349.21" transform="translate(-176.27 -71.58)"/><path class="cls-2" d="M767.44 242.6c-.33 1 48.55 27.08 117.91-5l-20.48-98.37c-52.35.78-38 49.4-63.08 65.18a97.12 97.12 0 00-34.35 38.19z" transform="translate(-176.27 -71.58)"/><path class="cls-7" d="M920 213.57c-1.07-.43-2-.82-2.71-1.19-5.1-2.65-14.5-6.81-20.89-16l-31.36-14c11.23-9.57 9.25-24.93-1.49-24.93s-9.91 15.85-9.91 15.85c-6.27.83-9.08-22.13-9.08-22.13a126.28 126.28 0 01-11.21 22.37c-.82 6.15-1.9 12.25-5.07 17.49h6.61c8.09 36.22 31.43 12.44 31.43 12.44 13.21 21.13 4.4 37.43-9.25 59-.92 1.64-1.79 3.23-2.63 4.78C870 262 894.09 248.69 920 213.57z" transform="translate(-176.27 -71.58)"/><path class="cls-2" d="M853.64 173.24s-.82-15.85 9.91-15.85 12.72 15.36 1.49 24.93l31.36 14c-4.37-6.32-7.33-15-6.52-27.23 2-30.05-23.45-35-42.11-25.43-12.23 6.28-12.85 18.11-14.42 29.8a126.28 126.28 0 0011.21-22.37s2.81 22.98 9.08 22.15z" transform="translate(-176.27 -71.58)"/><path class="cls-3" d="M984.67 296.76C963.49 229 931.78 218.32 920 213.57c-25.91 35.12-50 48.44-65.56 53.62-28.66 53.49-6.2 66.59 10.07 147.6-1.38-5.61 5.49-12.34 18.1-12.34h95.56l1.93-26.75 32.31-13.21z" transform="translate(-176.27 -71.58)"/><circle class="cls-2" cx="747.67" cy="48.81" r="47.81"/><path class="cls-5" d="M374.76 277.28c-1 0-70 59.45-70 59.45l35 79.89L310 442.08" transform="translate(-176.27 -71.58)"/><path class="cls-2" d="M290.54 459.92c-6.27-13.25 39.42-59.92 49.21-43.3 6.77 11.47-43.26 58.49-49.21 43.3z" transform="translate(-176.27 -71.58)"/><path class="cls-4" d="M261.25 259.54l-7.93-63.93M242.42 420.05L211.38 674.8"/><path class="cls-1" d="M339.75 416.62l35 29.87c8.48 7 5.84 12.33-4.73 7.92s-22.46-9.24-22.46-9.24l-8.81 60.33c-1.76 10.13-10.79 15.85-9.9 4.84s5.06-49.1 5.06-49.1l-14 59.78c-3.08 9.47-10 8-8.92-.11s9.5-55.91 9.5-55.91l-16.21 43.75c-3.3 7-11 7.36-7.83-.92 4.3-11.32 14.83-62.33 14.79-62.2a35.19 35.19 0 00-4.62-16.08s24.88-24.55 33.13-12.93z" transform="translate(-176.27 -71.58)"/><path class="cls-2" d="M1011.51 362.49c-7-16.63-90.15 4.52-83.11 27.87 6.16 20.46 90.13-11.25 83.11-27.87z" transform="translate(-176.27 -71.58)"/><path class="cls-7" d="M1008.44 506.86L988.69 356.8s-20.69.65-45.16 13.2l40.34 157.46c-4.49 21.19-7.14 36.55-7.14 36.55-2.47 13.87 4.08 13.32 8.92-1.65l7.27-20.15 5.83 49.1c.22 7.49 6.66 7.05 6.88-1.54s-.67-40.29-.67-40.29l7.44 44.09c1.77 7.48 8.21 5 7.11-3.11s-4.24-40.32-4.24-40.32l8.86 34.68c1.48 6.77 6.11 4.62 5.28-1s-4.45-34.37-4.45-34.37c-1.81-19.32-15.2-31.69-16.52-42.59z" transform="translate(-176.27 -71.58)"/><path class="cls-4" d="M752.13 318.78L726.37 200.3"/><path class="cls-7" d="M829 320.38l-77.45-25.1c-16.18-4.13-28.74-3.75-37.32 3.65s-18.85 19.54-18.85 19.54l6.35 3.67s21.57-21.41 27.27-15.47-18.3 20.6-18.3 20.6c-5.2 3.51-5.31 10.45 4.27 6.81 8.78-3.33 30.71-10.67 30.71-10.67 10.08-2.65 25.27.93 33.69 5.89s61.24 34 61.24 34-.18-38.13-11.61-42.92z" transform="translate(-176.27 -71.58)"/><path class="cls-5" d="M474.26 221.72H367.74V185.5h246.48v20.2"/><path class="cls-5" d="M560.71 196.34c15.36-27.66 16.34-52.12 24.42-73.86 1.5-4.89 6.08-6.09 6.08 1.68 0 7.38-.53 33.09-.53 33.09h47.07M260.49 293.3C273 280.75 348 209.15 384.67 209.15c54.83 0 104.35 79 104.35 79M920 213.57c-25.91 35.12-50 48.44-65.56 53.62M854.44 267.19c-28.66 53.49-6.2 66.59 10.07 147.6M1011.51 362.49c-7-16.63-90.15 4.52-83.11 27.87" transform="translate(-176.27 -71.58)"/><path class="cls-5" d="M495.56 233.27l35.47 20.48"/><path class="cls-5" d="M701.77 322.14s21.53-21.41 27.23-15.47-18.3 20.6-18.3 20.6c-5.2 3.51-5.31 10.45 4.27 6.81 8.78-3.33 30.71-10.67 30.71-10.67M834.32 386.93c10.23-.12 8.26-62.09-5.28-66.55" transform="translate(-176.27 -71.58)"/></g><g id="Layer_2" data-name="Layer 2"><path class="cls-2" d="M866.09 548.73C845.29 606.3 811.65 629 811.65 629l19-61.39z" transform="translate(-176.27 -71.58)"/><circle cx="614.21" cy="456" r="78.49" fill="#34a853" stroke="#34a853" stroke-width="2" stroke-linecap="round" stroke-linejoin="round"/><path stroke="#fff" fill="#fff" stroke-width="2" stroke-linecap="round" stroke-linejoin="round" d="M645.81 424.51l-39.08 38.8-20.02-20.16L574 455.78l20.01 20.16 12.63 12.71 12.72-12.62 39.07-38.81-12.62-12.71z"/></g></svg>